<svg id="Camada_1" data-name="Camada 1" xmlns="http://www.w3.org/2000/svg" viewBox="0 0 123.73 123.73"><defs><style>.cls-1{fill:#fff;}.cls-2{fill:#ff6c00;}</style></defs><title>pmo</title><path class="cls-1" d="M12.44,61.88a2.07,2.07,0,0,1-2.06-2.07V51.56a2.07,2.07,0,0,1,4.13,0v8.25a2.07,2.07,0,0,1-2.07,2.07m0,18.56a2.07,2.07,0,0,1-2.06-2.07V72.19a2.07,2.07,0,1,1,4.13,0v6.18a2.07,2.07,0,0,1-2.07,2.07m0,20.62A2.06,2.06,0,0,1,10.38,99V86.62a2.07,2.07,0,0,1,4.13,0V99a2.07,2.07,0,0,1-2.07,2.06" transform="translate(-2.13 -14.44)"/><path class="cls-1" d="M28.16,116.94a2.08,2.08,0,0,1-.88-.19l-7.46-3.51a2.06,2.06,0,0,1,1.75-3.74L29,113a2.06,2.06,0,0,1-.87,3.93m14.92,7a1.94,1.94,0,0,1-.87-.2l-5.6-2.63a2.06,2.06,0,1,1,1.76-3.73L44,120a2.06,2.06,0,0,1-.88,3.93m12.67,6a2,2,0,0,1-.88-.2l-5.2-2.44a2.07,2.07,0,1,1,1.76-3.74l5.2,2.45a2.06,2.06,0,0,1-.88,3.93" transform="translate(-2.13 -14.44)"/><path class="cls-1" d="M115.56,61.88a2.07,2.07,0,0,1-2.07-2.07V51.56a2.07,2.07,0,0,1,4.13,0v8.25a2.07,2.07,0,0,1-2.06,2.07m0,12.37a2.07,2.07,0,0,1-2.07-2.06V66a2.07,2.07,0,0,1,4.13,0v6.19a2.06,2.06,0,0,1-2.06,2.06m0,14.43a2.07,2.07,0,0,1-2.07-2.06V80.44a2.07,2.07,0,1,1,4.13,0v6.18a2.06,2.06,0,0,1-2.06,2.06m0,12.38A2.07,2.07,0,0,1,113.49,99V92.81a2.07,2.07,0,0,1,4.13,0V99a2.06,2.06,0,0,1-2.06,2.06" transform="translate(-2.13 -14.44)"/><path class="cls-1" d="M99.84,116.94A2.06,2.06,0,0,1,99,113l7.46-3.51a2.06,2.06,0,0,1,1.75,3.74l-7.46,3.51a2.08,2.08,0,0,1-.88.19m-14.92,7A2.06,2.06,0,0,1,84,120l5.59-2.63a2.06,2.06,0,1,1,1.76,3.73l-5.6,2.63a1.94,1.94,0,0,1-.87.2m-12.67,6a2.06,2.06,0,0,1-.88-3.93l5.2-2.45a2.07,2.07,0,0,1,1.76,3.74l-5.2,2.44a2,2,0,0,1-.88.2" transform="translate(-2.13 -14.44)"/><path class="cls-1" d="M76.8,26.63a2,2,0,0,1-.79-.16L71.46,24.6A2.06,2.06,0,1,1,73,20.79l4.55,1.87a2.06,2.06,0,0,1-.78,4m13.34,5.49a2.16,2.16,0,0,1-.78-.15l-5.72-2.36a2.06,2.06,0,1,1,1.57-3.81l5.72,2.35a2.06,2.06,0,0,1-.79,4m17.17,7.07a2.17,2.17,0,0,1-.79-.15l-7.63-3.15a2.06,2.06,0,1,1,1.58-3.81l7.62,3.14a2.06,2.06,0,0,1-.78,4" transform="translate(-2.13 -14.44)"/><path class="cls-1" d="M51.2,26.63a2.06,2.06,0,0,1-.78-4L55,20.79a2.06,2.06,0,0,1,1.57,3.81L52,26.47a2,2,0,0,1-.79.16M37.86,32.12a2.06,2.06,0,0,1-.79-4l5.72-2.35a2.06,2.06,0,0,1,1.57,3.81L38.64,32a2.16,2.16,0,0,1-.78.15M20.69,39.19a2.06,2.06,0,0,1-.78-4l7.62-3.14a2.06,2.06,0,1,1,1.58,3.81L21.48,39a2.17,2.17,0,0,1-.79.15" transform="translate(-2.13 -14.44)"/><path class="cls-1" d="M33.06,59.81a2.08,2.08,0,0,1-1.14-.34L19.55,51.22a2.06,2.06,0,1,1,2.29-3.43L34.21,56a2.06,2.06,0,0,1-1.15,3.77" transform="translate(-2.13 -14.44)"/><path class="cls-1" d="M94.94,59.81A2.06,2.06,0,0,1,93.79,56l12.37-8.25a2.06,2.06,0,1,1,2.29,3.43L96.08,59.47a2.08,2.08,0,0,1-1.14.34" transform="translate(-2.13 -14.44)"/><path class="cls-1" d="M107.3,103.12a2,2,0,0,1-1.14-.35L93.79,94.52a2.06,2.06,0,1,1,2.29-3.43l12.37,8.25a2.06,2.06,0,0,1-1.15,3.78" transform="translate(-2.13 -14.44)"/><path class="cls-1" d="M20.7,103.12a2.06,2.06,0,0,1-1.15-3.78l12.37-8.25a2.06,2.06,0,1,1,2.29,3.43l-12.37,8.25a2,2,0,0,1-1.14.35" transform="translate(-2.13 -14.44)"/><path class="cls-2" d="M61.2,94.87h5.6V93.59a5.23,5.23,0,0,1,8.9-3.68l.9.9,4-4-.9-.9a5.23,5.23,0,0,1,3.69-8.9h1.27v-5.6H83.35a5.23,5.23,0,0,1-3.69-8.9l.9-.9-4-4-.9.9a5.23,5.23,0,0,1-8.9-3.69V53.63H61.2V54.9a5.23,5.23,0,0,1-8.9,3.69l-.9-.9-4,4,.9.9a5.23,5.23,0,0,1-3.69,8.9H43.38v5.6h1.27A5.23,5.23,0,0,1,48.34,86l-.9.9,4,4,.9-.9a5.23,5.23,0,0,1,8.9,3.68ZM68.86,99H59.14a2.07,2.07,0,0,1-2.06-2.07V93.59a1.06,1.06,0,0,0-.67-1,1,1,0,0,0-1.19.21l-2.36,2.35a2.05,2.05,0,0,1-2.92,0l-6.88-6.87a2.08,2.08,0,0,1,0-2.92L45.43,83a1.11,1.11,0,0,0-.78-1.86H41.32a2.07,2.07,0,0,1-2.07-2.06V69.39a2.07,2.07,0,0,1,2.07-2.06h3.33a1.06,1.06,0,0,0,1-.67,1.1,1.1,0,0,0-.2-1.2L43.06,63.1a2.06,2.06,0,0,1,0-2.91l6.88-6.88a2.13,2.13,0,0,1,2.92,0l2.36,2.36a1.08,1.08,0,0,0,1.15.23l.22-.09a1,1,0,0,0,.49-.91V51.56a2.06,2.06,0,0,1,2.06-2.06h9.72a2.06,2.06,0,0,1,2.06,2.06V54.9a1.06,1.06,0,0,0,.67,1,1.09,1.09,0,0,0,1.2-.21l2.35-2.36a2.08,2.08,0,0,1,2.92,0l6.88,6.88a2.06,2.06,0,0,1,0,2.91l-2.37,2.36a1.11,1.11,0,0,0,.78,1.87h3.33a2.07,2.07,0,0,1,2.07,2.06v9.72a2.07,2.07,0,0,1-2.07,2.06H83.35a1.06,1.06,0,0,0-1,.67,1.09,1.09,0,0,0,.2,1.19l2.37,2.36a2.08,2.08,0,0,1,0,2.92l-6.88,6.87a2.11,2.11,0,0,1-2.92,0l-2.35-2.35a1.06,1.06,0,0,0-1.16-.23l-.22.08a1.07,1.07,0,0,0-.49.91v3.34A2.07,2.07,0,0,1,68.86,99Z" transform="translate(-2.13 -14.44)"/><path class="cls-1" d="M64,66a8.25,8.25,0,1,0,8.25,8.25A8.26,8.26,0,0,0,64,66m0,20.62A12.37,12.37,0,1,1,76.37,74.25,12.39,12.39,0,0,1,64,86.62" transform="translate(-2.13 -14.44)"/><path class="cls-2" d="M12.44,37.13a6.19,6.19,0,1,0,6.19,6.19,6.19,6.19,0,0,0-6.19-6.19m0,16.5A10.32,10.32,0,1,1,22.76,43.32,10.33,10.33,0,0,1,12.44,53.63" transform="translate(-2.13 -14.44)"/><path class="cls-2" d="M64,18.57a6.19,6.19,0,1,0,6.19,6.19A6.19,6.19,0,0,0,64,18.57m0,16.5A10.32,10.32,0,1,1,74.31,24.76,10.32,10.32,0,0,1,64,35.07" transform="translate(-2.13 -14.44)"/><path class="cls-2" d="M64,121.68a6.19,6.19,0,1,0,6.19,6.19A6.2,6.2,0,0,0,64,121.68m0,16.5a10.31,10.31,0,1,1,10.31-10.31A10.32,10.32,0,0,1,64,138.18" transform="translate(-2.13 -14.44)"/><path class="cls-2" d="M115.56,37.13a6.19,6.19,0,1,0,6.18,6.19,6.19,6.19,0,0,0-6.18-6.19m0,16.5a10.32,10.32,0,1,1,10.31-10.31,10.33,10.33,0,0,1-10.31,10.31" transform="translate(-2.13 -14.44)"/><path class="cls-2" d="M115.56,101.06a6.19,6.19,0,1,0,6.18,6.18,6.19,6.19,0,0,0-6.18-6.18m0,16.5a10.32,10.32,0,1,1,10.31-10.32,10.33,10.33,0,0,1-10.31,10.32" transform="translate(-2.13 -14.44)"/><path class="cls-2" d="M12.44,101.06a6.19,6.19,0,1,0,6.19,6.18,6.18,6.18,0,0,0-6.19-6.18m0,16.5a10.32,10.32,0,1,1,10.32-10.32,10.33,10.33,0,0,1-10.32,10.32" transform="translate(-2.13 -14.44)"/></svg>