<svg xmlns="http://www.w3.org/2000/svg" width="200" viewBox="0 0 192.19 43.68"><defs><clipPath id="A" transform="translate(-.26 -1.63)"><path d="M123 15l-7.86 7.85v-5.4a2.95 2.95 0 0 0-5-2.08l-7.47 7.47v-5.4a3 3 0 0 0-5.9 0V30a2.94 2.94 0 0 0 1.82 2.72 3 3 0 0 0 1.13.23 3 3 0 0 0 2.09-.87l7.47-7.47V30a2.95 2.95 0 0 0 5 2.08l12.9-12.88A2.95 2.95 0 0 0 123 15zm-68.94 8.27v7.3a3 3 0 0 1-3 3 2.92 2.92 0 0 1-2.31-1.13A10 10 0 1 1 54 23.32zm-5.88.3A4.14 4.14 0 1 0 44 27.71a4.15 4.15 0 0 0 4.18-4.14zm22.7-1.67a3 3 0 0 0-2.95 3 2.86 2.86 0 0 1-5.72 0v-5.46h7a2.95 2.95 0 1 0 0-5.89h-7v-5.1a2.95 2.95 0 1 0-5.89 0v16.4a8.76 8.76 0 0 0 17.51 0 3 3 0 0 0-2.95-2.95zm77.26 1.37v7.3a3 3 0 0 1-3 3 2.92 2.92 0 0 1-2.31-1.13 10 10 0 1 1 5.25-9.12zm-5.88.3a4.14 4.14 0 1 0-4.13 4.14 4.14 4.14 0 0 0 4.13-4.14zm16.5-9.07a8.76 8.76 0 0 0-8.75 8.75v7.4a2.95 2.95 0 1 0 5.89 0v-7.4a2.86 2.86 0 0 1 4.89-2 2.95 2.95 0 1 0 4.22-4.19 8.74 8.74 0 0 0-6.25-2.56zm30.72 12.06a3 3 0 1 0 3 3 3 3 0 0 0-3-3zM21.9 29.3a2.94 2.94 0 0 1-2.42 3.39A15.45 15.45 0 1 1 24.43 4a2.95 2.95 0 1 1-2.87 5.1 9.55 9.55 0 1 0-3.07 17.77 3 3 0 0 1 3.4 2.42zm6.88-14.8H16.9a2.95 2.95 0 1 0 0 5.89h8.92V30a2.95 2.95 0 1 0 5.89 0V17.44a3 3 0 0 0-2.95-2.94zm156.3 5.07a3.81 3.81 0 0 0-1.07-3.08 10.67 10.67 0 0 0-15.35.49 9.76 9.76 0 0 0-2.44 7.73 10.28 10.28 0 0 0 9 8.8 10.67 10.67 0 0 0 8.59-2.71 2.73 2.73 0 1 0-3.72-4 5.16 5.16 0 0 1-4.19 1.29 4.55 4.55 0 0 1-.89-.19l8.44-5.5a3.81 3.81 0 0 0 1.63-2.84zm-13.5 4a4.33 4.33 0 0 1 1.13-2.92 5.08 5.08 0 0 1 3.81-1.68 5.32 5.32 0 0 1 1.7.28zm-77-4a3.81 3.81 0 0 0-1.12-3.08 10.66 10.66 0 0 0-15.38.51 9.76 9.76 0 0 0-2.44 7.73 10.28 10.28 0 0 0 9 8.8 10.89 10.89 0 0 0 1.37.07 10.61 10.61 0 0 0 7.22-2.8 2.73 2.73 0 0 0-3.72-4 5.17 5.17 0 0 1-4.19 1.29 4.26 4.26 0 0 1-.89-.19l8.43-5.5a3.83 3.83 0 0 0 1.68-2.84zm-13.5 4a4.33 4.33 0 0 1 1.13-2.92 5.05 5.05 0 0 1 3.8-1.71 5.36 5.36 0 0 1 1.7.28z" fill="none"/></clipPath></defs><g clip-path="url(#A)"><path d="M80.77 20.4l1.5 1.5h-1.5v-1.5z" fill="#227a90"/><path d="M80.77 19.55l.8-.8 2.56 2.56-.6.6h-1.27l-1.5-1.5v-.86z" fill="#237b91"/><path d="M81.56 18.744l1.23-1.23 2.56 2.56-1.23 1.23z" fill="#247d92"/><path d="M82.8 17.52l.2-.2h2.06l1.53 1.53-1.23 1.24-2.56-2.56z" fill="#257e92"/><path d="M87.4 18.03l-.82.8-1.53-1.53h2.35v.72z" fill="#267f93"/><path d="M75.03 31.93l.03.04h-.03v-.04z" fill="#1b708c"/><path d="M75.03 29.47l2.5 2.5h-2.47l-.03-.04v-2.46z" fill="#1c718d"/><path d="M75.03 27L80 31.97h-2.46l-2.5-2.5V27z" fill="#1d728e"/><path d="M75.03 24.54l7.43 7.43H80L75.03 27v-2.46z" fill="#1e748e"/><path d="M75.03 22.07l9.9 9.9h-2.46l-7.43-7.43v-2.47z" fill="#1f758f"/><path d="M75.03 19.6L87.4 31.97h-2.47l-9.9-9.9V19.6z" fill="#20778f"/><path d="M75.03 17.43l.14-.14 14.7 14.68H87.4L75.03 19.6v-2.18z" fill="#217890"/><path d="M75.17 17.3l1.24-1.24 15.07 15.08-.84.84h-.78L75.17 17.3z" fill="#227a90"/><path d="M76.406 16.053l1.23-1.23 15.076 15.076-1.23 1.23z" fill="#237b91"/><path d="M77.636 14.823l1.23-1.23 15.076 15.076-1.23 1.23z" fill="#247d92"/><path d="M78.87 13.6l1.24-1.23 14.27 14.27v1.6l-.43.43L78.87 13.6z" fill="#257e92"/><path d="M80.1 12.36l.5-.52h1.43l12.33 12.32v2.47L80.1 12.36z" fill="#267f93"/><path d="M84.52 11.84l9.86 9.86v2.46L82.05 11.84h2.47z" fill="#278193"/><path d="M86.98 11.84l7.4 7.4v2.47l-9.86-9.86h2.46z" fill="#288294"/><path d="M89.45 11.84l4.93 4.93v2.46l-7.4-7.4h2.47z" fill="#298494"/><path d="M91.9 11.84l2.47 2.46v2.47l-4.93-4.93h2.46z" fill="#2a8595"/><path d="M94.38 14.3l-2.47-2.46h2.47v2.46z" fill="#2b8795"/><path d="M171.3 19.74l2.17 2.17h-2.17v-2.17z" fill="#48b0a1"/><path d="M171.3 19.55l1.14-1.14 2.56 2.56-.94.94h-.6l-2.17-2.17v-.2z" fill="#49b1a1"/><path d="M172.45 18.4l1.1-1.1h.26l2.43 2.43-1.23 1.23-2.56-2.56z" fill="#4ab2a1"/><path d="M176.28 17.3l1.2 1.2-1.23 1.24-2.43-2.43h2.47z" fill="#4ab3a1"/><path d="M177.95 18.03l-.48.47-1.2-1.2h1.67v.72z" fill="#4bb5a2"/><path d="M165.57 31.26l.7.7h-.7v-.7z" fill="#41a69e"/><path d="M165.57 28.8l3.18 3.18h-2.47l-.7-.7V28.8z" fill="#42a79f"/><path d="M165.57 26.32l5.65 5.65h-2.47l-3.18-3.18v-2.47z" fill="#43a99f"/><path d="M165.57 23.86l8.1 8.1h-2.46l-5.65-5.65v-2.46z" fill="#44aa9f"/><path d="M165.57 21.4l10.58 10.58h-2.47l-8.1-8.1V21.4z" fill="#45aca0"/><path d="M165.57 18.93l13.04 13.04h-2.46L165.57 21.4v-2.46z" fill="#46ada0"/><path d="M165.57 17.43l.5-.48 15.02 15.02h-2.47l-13.04-13.04v-1.5z" fill="#47aea0"/><path d="M166.06 16.95l1.23-1.23 15.07 15.07-1.18 1.18h-.1l-15.02-15.02z" fill="#48b0a1"/><path d="M167.287 15.72l1.23-1.23 15.076 15.076-1.23 1.23z" fill="#49b1a1"/><path d="M168.524 14.484l1.23-1.23L184.83 28.33l-1.23 1.23z" fill="#4ab2a1"/><path d="M169.75 13.25l1.24-1.23 13.93 13.93v2.28l-.1.1-15.08-15.07z" fill="#4ab3a1"/><path d="M171 12.02l.18-.18h2.1l11.65 11.65v2.46L171 12.02z" fill="#4bb5a2"/><path d="M175.74 11.84l9.18 9.18v2.47l-11.65-11.65h2.47z" fill="#4cb6a2"/><g fill="#4db7a2"><path d="M178.2 11.84l6.72 6.72v2.46l-9.18-9.18h2.46z"/><path d="M180.67 11.84l4.25 4.25v2.47l-6.72-6.72h2.47z"/><path d="M184.92 16.1l-4.25-4.25h4.25v4.25z"/></g><path d="M13.7 29.78l1.5 1.48h-1.5v-1.48z" fill="#06507c"/><path d="M13.7 27.3l3.95 3.95H15.2l-1.5-1.48V27.3z" fill="#07517d"/><path d="M13.7 24.85l6.42 6.4h-2.47L13.7 27.3v-2.46z" fill="#09527d"/><path d="M13.7 22.38l8.88 8.88h-2.46l-6.42-6.4v-2.47z" fill="#0a547e"/><path d="M13.7 19.92l11.35 11.34h-2.47l-8.88-8.88v-2.46z" fill="#0b557f"/><path d="M13.7 17.45l13.82 13.8h-2.47L13.7 19.92v-2.47z" fill="#0c567f"/><path d="M13.7 14.98l16.28 16.28h-2.46L13.7 17.45v-2.47z" fill="#0d5780"/><path d="M13.7 13.74l.6-.6 17.15 17.15v.1l-.88.87h-.6L13.7 14.98v-1.24z" fill="#0d5981"/><path d="M14.3 13.13l.27-.26h1.93L31.46 27.8v2.47L14.3 13.13z" fill="#0e5a82"/><path d="M18.98 12.87l12.48 12.48v2.46L16.5 12.87h2.47z" fill="#0f5b82"/><path d="M21.44 12.87l10.02 10v2.47L18.98 12.87h2.46z" fill="#105c83"/><path d="M23.9 12.87l7.55 7.55v2.46l-10.02-10h2.47z" fill="#115e84"/><path d="M26.37 12.87l5.1 5.08v2.47l-7.55-7.55h2.46z" fill="#115f84"/><path d="M28.84 12.87l2.62 2.6v2.47l-5.1-5.08h2.47z" fill="#126085"/><path d="M31.3 12.87l.16.15v2.46l-2.62-2.6h2.46z" fill="#136286"/><path d="M31.46 13.02l-.16-.15h.16v.15z" fill="#136386"/><g fill="#044f7b"><path d="M0 21l11.45 11.45H0V21z"/><path d="M0 18.54l13.92 13.92h-2.47L0 21v-2.47z"/></g><path d="M0 16.08l16.4 16.38h-2.47L0 18.54v-2.46z" fill="#06507c"/><path d="M0 13.6l18.85 18.85H16.4L0 16.08V13.6z" fill="#07517d"/><path d="M0 11.14L20.45 31.6l-.88.87h-.72L0 13.6v-2.47z" fill="#09527d"/><path d="M0 8.68l21.68 21.68-1.23 1.23L0 11.14V8.68z" fill="#0a547e"/><path d="M0 7.23l.5-.5 22.4 22.4-1.23 1.23L0 8.68V7.23z" fill="#0b557f"/><path d="M.51 6.725l1.23-1.23 22.4 22.4-1.23 1.23z" fill="#0c567f"/><path d="M1.74 5.495l1.23-1.23 22.4 22.4-1.23 1.23z" fill="#0d5780"/><path d="M2.98 4.26L4.2 3.02l21.9 21.9v1l-.72.73-22.4-22.4z" fill="#0d5981"/><path d="M4.2 3.02L5.44 1.8 26.1 22.45v2.47L4.2 3.02z" fill="#0e5a82"/><path d="M5.44 1.8L6.67.56 26.1 20v2.46L5.44 1.8z" fill="#0f5b82"/><path d="M6.67.56L7.23 0h1.35L26.1 17.52V20L6.67.56z" fill="#105c83"/><path d="M11.04 0L26.1 15.06v2.46L8.58 0h2.46z" fill="#115e84"/><path d="M13.5 0l12.6 12.6v2.47L11.04 0h2.47z" fill="#115f84"/><path d="M15.97 0L26.1 10.13v2.46L13.5 0h2.46z" fill="#126085"/><path d="M18.44 0l7.66 7.66v2.47L15.97 0h2.47z" fill="#136286"/><path d="M20.9 0l5.2 5.2v2.47L18.44 0h2.47z" fill="#136386"/><path d="M23.37 0l2.73 2.73V5.2L20.9 0h2.46z" fill="#146587"/><path d="M25.84 0l.26.26v2.47L23.37 0h2.47z" fill="#156688"/><path d="M26.1.26L25.84 0h.26v.26z" fill="#156789"/><path d="M186.23 29.73l1.16 1.16h-1.16v-1.16z" fill="#4ab2a1"/><path d="M186.23 27.26l3.63 3.63h-2.47l-1.16-1.16v-2.47z" fill="#4ab3a1"/><path d="M186.23 25.82l.5-.5 5.07 5.07-.5.5h-1.44l-3.63-3.63v-1.44z" fill="#4bb5a2"/><path d="M186.74 25.3l.38-.38h1.7l3.36 3.36V30l-.38.38-5.07-5.07z" fill="#4cb6a2"/><path d="M191.3 24.93l.9.9v2.47l-3.36-3.36h2.47zm.9.9l-.9-.9h.9v.9z" fill="#4db7a2"/><path d="M149.74 30.2l1.75 1.76h-1.75V30.2z" fill="#3b9d9c"/><path d="M149.74 27.75l4.22 4.22h-2.47l-1.75-1.76v-2.46z" fill="#3c9f9d"/><path d="M149.74 25.28l5.85 5.86-.83.83h-.8l-4.22-4.22v-2.47z" fill="#3da09d"/><path d="M149.74 22.82l7.08 7.08-1.23 1.24-5.85-5.86v-2.46z" fill="#3ea29d"/><path d="M149.74 20.35l8.3 8.32-1.23 1.23-7.08-7.08v-2.47z" fill="#3fa39e"/><path d="M149.74 17.9l9.55 9.55-1.24 1.23-8.3-8.32V17.9z" fill="#40a59e"/><path d="M149.74 16.35l.46-.47 10.32 10.32-1.23 1.24-9.55-9.55v-1.54z" fill="#41a69e"/><path d="M150.2 15.884l1.23-1.23 10.317 10.317-1.23 1.23z" fill="#42a79f"/><path d="M151.43 14.654l1.23-1.23 10.317 10.317-1.23 1.23z" fill="#43a99f"/><path d="M152.67 13.42l.55-.55h1.36l9.64 9.64-1.23 1.23-10.32-10.32z" fill="#44aa9f"/><path d="M157.04 12.87l8.4 8.4-1.23 1.24-9.64-9.64h2.46z" fill="#45aca0"/><path d="M159.5 12.87l6.33 6.32v1.7l-.4.38-8.4-8.4h2.47z" fill="#46ada0"/><path d="M161.97 12.87l3.87 3.86v2.46l-6.33-6.32h2.46z" fill="#47aea0"/><path d="M164.44 12.87l1.4 1.4v2.47l-3.87-3.86h2.47z" fill="#48b0a1"/><path d="M165.84 14.26l-1.4-1.4h1.4v1.4z" fill="#49b1a1"/><path d="M133.73 24.07l2 2h-2v-2z" fill="#37979b"/><path d="M133.73 21.6l4.47 4.46h-2.47l-2-2V21.6z" fill="#38999b"/><path d="M133.73 19.22l.04-.04 6.86 6.85-.05.04h-2.38l-4.47-4.46v-2.4z" fill="#399a9b"/><path d="M133.782 19.177l1.23-1.23 6.852 6.852-1.23 1.23z" fill="#3a9c9c"/><path d="M135 17.95l.14-.14h2.2l4.66 4.66v2.2l-.13.14-6.86-6.85z" fill="#3b9d9c"/><path d="M139.8 17.8L142 20v2.46l-4.66-4.66h2.47z" fill="#3c9f9d"/><path d="M142 20l-2.2-2.2h2.2V20z" fill="#3da09d"/><path d="M127.84 30.5l1.46 1.47h-1.46V30.5z" fill="#319098"/><path d="M127.84 28.04l3.93 3.93h-2.47l-1.46-1.47v-2.46z" fill="#329199"/><path d="M127.84 25.57l6.4 6.4h-2.46l-3.93-3.93v-2.47z" fill="#339399"/><path d="M127.84 23.1l8.86 8.86h-2.47l-6.4-6.4V23.1z" fill="#34949a"/><path d="M127.84 20.64l11.32 11.33h-2.46l-8.86-8.86v-2.47z" fill="#35969a"/><path d="M127.84 18.18l13.8 13.8h-2.47l-11.32-11.33v-2.46z" fill="#37979b"/><path d="M127.84 15.97l.13-.13 16.12 16.13h-2.46l-13.8-13.8v-2.2z" fill="#38999b"/><path d="M127.97 15.84l1.23-1.23 17.36 17.36h-2.47l-16.12-16.13z" fill="#399a9b"/><path d="M129.2 14.6l1.23-1.24 17.46 17.46V31l-.95.96h-.38L129.2 14.6z" fill="#3a9c9c"/><path d="M130.43 13.37l1.23-1.23 16.23 16.23v2.46l-17.46-17.46z" fill="#3b9d9c"/><path d="M131.66 12.14l.23-.22h2l14 13.98v2.47l-16.23-16.23z" fill="#3c9f9d"/><path d="M136.37 11.92l11.52 11.5v2.47l-14-13.98h2.47z" fill="#3da09d"/><path d="M138.84 11.92l9.05 9.05v2.46l-11.52-11.5h2.47z" fill="#3ea29d"/><path d="M141.3 11.92l6.6 6.58v2.47l-9.05-9.05h2.46z" fill="#3fa39e"/><path d="M143.77 11.92l4.12 4.12v2.46l-6.6-6.58h2.47z" fill="#40a59e"/><path d="M146.23 11.92l1.66 1.65v2.47l-4.12-4.12h2.46z" fill="#41a69e"/><path d="M147.9 13.57l-1.66-1.65h1.66v1.65z" fill="#42a79f"/><path d="M56.06 30.22l1.74 1.75h-1.74v-1.75z" fill="#156688"/><path d="M56.06 27.75l4.2 4.22H57.8l-1.74-1.75v-2.47z" fill="#156789"/><path d="M56.06 25.3l6.67 6.68h-2.46l-4.2-4.22V25.3z" fill="#166989"/><path d="M56.06 22.82l9.14 9.15h-2.47l-6.67-6.68v-2.47z" fill="#176a8a"/><path d="M56.06 20.36l11.6 11.6H65.2l-9.14-9.15v-2.46z" fill="#176c8b"/><path d="M56.06 17.9L70.1 31.94l-.03.03h-2.4l-11.6-11.6V17.9z" fill="#196d8b"/><path d="M56.06 15.43L71.34 30.7l-1.23 1.23L56.06 17.9v-2.46z" fill="#1a6e8c"/><path d="M56.06 12.96l16.5 16.52-1.23 1.23-15.28-15.28v-2.47z" fill="#1b708c"/><path d="M56.06 10.5L73.57 28v.47l-1 1-16.5-16.52V10.5z" fill="#1c718d"/><path d="M56.06 8.03l17.5 17.5V28l-17.5-17.5V8.03z" fill="#1d728e"/><path d="M56.06 5.57l17.5 17.5v2.46l-17.5-17.5V5.57z" fill="#1e748e"/><path d="M56.06 4.75l.82-.82 16.7 16.68v2.47l-17.5-17.5v-.82z" fill="#1f758f"/><path d="M56.88 3.93l.05-.05h2.37l14.27 14.26v2.47L56.88 3.93z" fill="#20778f"/><path d="M61.77 3.88l11.8 11.8v2.46L59.3 3.88h2.47z" fill="#217890"/><path d="M64.23 3.88l9.34 9.33v2.47l-11.8-11.8h2.46z" fill="#227a90"/><path d="M66.7 3.88l6.87 6.87v2.46l-9.34-9.33h2.47z" fill="#237b91"/><path d="M69.16 3.88l4.4 4.4v2.47L66.7 3.88h2.46z" fill="#247d92"/><path d="M71.63 3.88l1.94 1.94v2.46l-4.4-4.4h2.47z" fill="#257e92"/><path d="M73.57 5.82l-1.94-1.94h1.94v1.94z" fill="#267f93"/><path d="M39.65 23.68l2.4 2.4h-2.4v-2.4z" fill="#126085"/><path d="M39.65 21.2l4.86 4.86h-2.46l-2.4-2.4V21.2z" fill="#136286"/><path d="M39.65 19.22l.24-.24 6.85 6.86-.24.23h-2l-4.86-4.86v-2z" fill="#136386"/><path d="M39.9 18.98l1.17-1.17h.12l6.73 6.73v.12l-1.17 1.18-6.85-6.86z" fill="#146587"/><path d="M43.65 17.8l4.26 4.27v2.46l-6.73-6.73h2.47z" fill="#156688"/><path d="M46.1 17.8l1.8 1.8v2.47l-4.26-4.27h2.46z" fill="#156789"/><path d="M47.9 19.6l-1.8-1.8h1.8v1.8z" fill="#166989"/><path d="M33.76 30.1l1.86 1.86h-1.86V30.1z" fill="#0e5a82"/><path d="M33.76 27.64l4.32 4.33h-2.46l-1.86-1.86v-2.47z" fill="#0f5b82"/><path d="M33.76 25.18l6.8 6.8h-2.47l-4.32-4.33v-2.46z" fill="#105c83"/><path d="M33.76 22.7L43 31.97h-2.46l-6.8-6.8V22.7z" fill="#115e84"/><path d="M33.76 20.25l11.72 11.72H43l-9.25-9.26v-2.46z" fill="#115f84"/><path d="M33.76 17.78l14.18 14.2h-2.46L33.76 20.25v-2.47z" fill="#126085"/><path d="M33.76 15.97l.32-.33L50.4 31.97h-2.47l-14.18-14.2v-1.8z" fill="#136286"/><path d="M34.08 15.64l1.24-1.23 17.53 17.56H50.4L34.08 15.64z" fill="#136386"/><path d="M35.32 14.4l1.23-1.23L53.8 30.44V31l-.95.95L35.32 14.4z" fill="#146587"/><path d="M36.55 13.18l1.23-1.24L53.8 27.97v2.47L36.55 13.18z" fill="#156688"/><path d="M37.78 11.94l.03-.02h2.4l13.6 13.6v2.46L37.78 11.94z" fill="#156789"/><path d="M42.68 11.92L53.8 23.04v2.47l-13.6-13.6h2.46z" fill="#166989"/><path d="M45.15 11.92l8.66 8.66v2.46L42.68 11.92h2.47z" fill="#176a8a"/><path d="M47.6 11.92l6.2 6.2v2.47l-8.66-8.66h2.46z" fill="#176c8b"/><path d="M50.08 11.92l3.73 3.72v2.47l-6.2-6.2h2.47z" fill="#196d8b"/><path d="M52.55 11.92l1.26 1.26v2.46l-3.73-3.72h2.47z" fill="#1a6e8c"/><path d="M53.8 13.18l-1.26-1.26h1.26v1.26z" fill="#1b708c"/><path d="M96.5 31.2l.3.3h-.3v-.3z" fill="#247d92"/><path d="M96.5 28.74l2.76 2.76h-2.47l-.3-.3v-2.47z" fill="#257e92"/><path d="M96.5 26.28l5.22 5.22h-2.46l-2.76-2.76v-2.46z" fill="#267f93"/><path d="M96.5 23.8l7.7 7.7h-2.47l-5.22-5.22V23.8z" fill="#278193"/><path d="M96.5 21.35l10.15 10.15h-2.46l-7.7-7.7v-2.46z" fill="#288294"/><path d="M96.5 18.88L109.1 31.5h-2.47L96.5 21.35v-2.47z" fill="#298494"/><path d="M96.5 16.42l15.08 15.08h-2.46L96.5 18.88v-2.46z" fill="#2a8595"/><path d="M96.5 13.95l17.22 17.2-.33.34h-1.8L96.5 16.42v-2.47z" fill="#2b8795"/><path d="M96.5 13.74l1.13-1.13 17.32 17.32-1.23 1.23-17.22-17.2v-.2z" fill="#2c8896"/><path d="M97.62 12.6l.42-.42h1.63l16.5 16.5-1.23 1.23L97.62 12.6z" fill="#2d8a96"/><path d="M102.13 12.2l15.28 15.28-1.24 1.23-16.5-16.5h2.46z" fill="#2e8b97"/><path d="M104.6 12.2l14.04 14.04-1.23 1.24-15.28-15.28h2.47z" fill="#2f8d97"/><path d="M107.06 12.2l12.8 12.8-1.23 1.23L104.6 12.2h2.46z" fill="#308f98"/><path d="M109.53 12.2l11.57 11.58-1.23 1.23-12.8-12.8h2.47z" fill="#319098"/><path d="M112 12.2l10.35 10.35-1.24 1.23-11.57-11.58H112z" fill="#329199"/><path d="M114.46 12.2l9.1 9.1-1.23 1.24L112 12.2h2.47z" fill="#339399"/><path d="M116.92 12.2l7.88 7.88-1.23 1.23-9.1-9.1h2.46z" fill="#34949a"/><path d="M119.4 12.2l6.64 6.65-1.23 1.23-7.88-7.88h2.47z" fill="#35969a"/><path d="M121.86 12.2l5.4 5.42-1.24 1.23-6.64-6.65h2.47z" fill="#37979b"/><path d="M124.32 12.2l3.74 3.75v.87l-.8.8-5.4-5.42h2.46z" fill="#38999b"/><path d="M126.8 12.2l1.27 1.28v2.47l-3.74-3.75h2.47z" fill="#399a9b"/><path d="M128.06 13.47l-1.27-1.28h1.27v1.28z" fill="#3a9c9c"/></g><path d="M50.6 43.5v-5.9a1.77 1.77 0 1 1 3.52 0v1.16a1.73 1.73 0 0 1-1.77 1.82h-1.23v2.9c0 .05 0 .08-.1.08h-.3c-.1 0-.13-.03-.13-.08zm1.75-3.4a1.22 1.22 0 0 0 1.24-1.33V37.6c0-.87-.47-1.46-1.24-1.46s-1.23.6-1.23 1.46v2.5zm9.55-2.48v5.87a.09.09 0 0 1-.1.08h-.34a.08.08 0 0 1-.09-.08v-5.87c0-.9-.4-1.47-1.16-1.47s-1.15.57-1.15 1.47v5.87c0 .05 0 .08-.1.08h-.33c-.06 0-.1 0-.1-.08v-5.87c0-.9-.48-1.47-1.15-1.47s-1.16.56-1.16 1.47v5.87a.08.08 0 0 1-.09.08h-.34a.09.09 0 0 1-.1-.08v-5.87c0-1.17.63-2 1.7-2a1.48 1.48 0 0 1 1.4 1 1.52 1.52 0 0 1 1.41-1c1.05.04 1.7.83 1.7 2zm1.75 3.98v-3.88a1.86 1.86 0 0 1 1.87-2.06 1.83 1.83 0 0 1 1.86 2v4a1.82 1.82 0 0 1-1.86 2 1.85 1.85 0 0 1-1.87-2.06zm3.22.07v-4a1.36 1.36 0 0 0-1.35-1.51c-.8 0-1.34.6-1.34 1.58v3.88c0 1 .53 1.57 1.34 1.57a1.36 1.36 0 0 0 1.35-1.52zM78.4 43.7l-1.13-1.2a3.28 3.28 0 0 1-2.61 1.13c-1.48 0-2.54-.8-2.54-1.95 0-.9.53-1.6 2-2.46-.8-.83-1-1.3-1-1.9 0-1 .72-1.6 1.86-1.6s1.75.54 1.75 1.47c0 .77-.46 1.3-1.8 2.1l2.3 2.44a5.05 5.05 0 0 0 .56-1.58l.46.14a5.5 5.5 0 0 1-.67 1.8l1.13 1.28zm-1.47-1.54l-2.47-2.6c-1.38.82-1.8 1.34-1.8 2.1 0 .92.82 1.53 2 1.53a2.75 2.75 0 0 0 2.26-1.01zm-2.34-3.2c1.23-.7 1.62-1.13 1.62-1.74s-.44-1.06-1.23-1.06-1.33.47-1.33 1.16c0 .5.2.85.94 1.64zm8.66 4.4V36a.25.25 0 0 1 .26-.26H85a1.76 1.76 0 0 1 1.8 1.87v4.1A1.79 1.79 0 0 1 85 43.6h-1.5a.24.24 0 0 1-.26-.23zm1.75-.23a1.31 1.31 0 0 0 1.29-1.42v-4.1A1.27 1.27 0 0 0 85 36.23h-1.26v6.88zm3.44-1.44v-4.07a1.79 1.79 0 0 1 1.8-1.9h1.1a.09.09 0 0 1 .09.09v.3a.1.1 0 0 1-.09.1h-1.1a1.28 1.28 0 0 0-1.27 1.4v1.74h2.12a.09.09 0 0 1 .1.09v.3s0 .08-.1.08h-2.12v1.86a1.29 1.29 0 0 0 1.27 1.41h1.1a.09.09 0 0 1 .09.1v.3a.09.09 0 0 1-.09.09h-1.1a1.79 1.79 0 0 1-1.8-1.91zm8-5.84l-1.52 7.5a.26.26 0 0 1-.28.24h-.32a.26.26 0 0 1-.28-.24l-1.52-7.5c0-.06 0-.1.1-.1h.34a.09.09 0 0 1 .1.08L94.5 43l1.43-7.18c0-.06 0-.08.1-.08h.32c.07 0 .1.04.1.1zm10.63 7.84l-1.12-1.2a3.28 3.28 0 0 1-2.61 1.13c-1.48 0-2.54-.8-2.54-1.95 0-.9.53-1.6 2-2.46-.8-.83-1-1.3-1-1.9 0-1 .72-1.6 1.86-1.6s1.72.56 1.72 1.5c0 .77-.46 1.3-1.8 2.1l2.3 2.44a5.05 5.05 0 0 0 .56-1.58l.46.14a5.5 5.5 0 0 1-.67 1.8l1.16 1.26zm-1.46-1.54l-2.47-2.6c-1.38.82-1.8 1.34-1.8 2.1 0 .92.83 1.53 2 1.53a2.75 2.75 0 0 0 2.27-1.01zm-2.35-3.2c1.23-.7 1.62-1.13 1.62-1.74s-.43-1.06-1.22-1.06-1.33.47-1.33 1.16c0 .5.2.85.93 1.64zm8.57 4.55v-5.9a1.77 1.77 0 1 1 3.52 0v1.16a1.73 1.73 0 0 1-1.77 1.82h-1.23v2.9c0 .05 0 .08-.1.08h-.33c-.06 0-.1-.03-.1-.08zm1.75-3.4a1.22 1.22 0 0 0 1.24-1.33V37.6c0-.87-.47-1.46-1.24-1.46s-1.23.6-1.23 1.46v2.5zm3.22 1.6v-4.07a1.78 1.78 0 0 1 1.8-1.9h1.15a.08.08 0 0 1 .09.09v.3a.09.09 0 0 1-.09.1h-1.1a1.28 1.28 0 0 0-1.28 1.4v1.74h2.12a.09.09 0 0 1 .1.09v.3s0 .08-.1.08h-2.12v1.86a1.29 1.29 0 0 0 1.28 1.41h1.1c.06 0 .1 0 .1.1v.3a.08.08 0 0 1-.09.09h-1.1a1.78 1.78 0 0 1-1.85-1.91zm4.45-.1v-3.88a1.86 1.86 0 0 1 1.87-2.06 1.82 1.82 0 0 1 1.86 2v4a1.82 1.82 0 0 1-1.86 2 1.85 1.85 0 0 1-1.87-2.06zm3.22.07v-4a1.36 1.36 0 0 0-1.35-1.51c-.8 0-1.34.6-1.34 1.58v3.88c0 1 .54 1.57 1.34 1.57a1.36 1.36 0 0 0 1.35-1.52zm2.27 1.83v-5.9a1.77 1.77 0 1 1 3.52 0v1.16a1.73 1.73 0 0 1-1.77 1.82h-1.23v2.9a.07.07 0 0 1-.08.08h-.34c-.04 0-.1-.03-.1-.08zm1.75-3.4a1.22 1.22 0 0 0 1.25-1.33V37.6c0-.87-.47-1.46-1.24-1.46s-1.23.6-1.23 1.46v2.5zm6.1 3a.08.08 0 0 1 .09.09v.3a.09.09 0 0 1-.09.09h-1a1.79 1.79 0 0 1-1.78-1.89v-5.85a.09.09 0 0 1 .1-.09h.34a.08.08 0 0 1 .09.09v5.85a1.3 1.3 0 0 0 1.25 1.41zm1.04-1.4v-4.07a1.78 1.78 0 0 1 1.79-1.9h1.1a.08.08 0 0 1 .09.09v.3a.09.09 0 0 1-.09.1h-1.1a1.28 1.28 0 0 0-1.27 1.4v1.74h2.12a.09.09 0 0 1 .1.09v.3s0 .08-.1.08h-2.12v1.86a1.29 1.29 0 0 0 1.27 1.41h1.1c.06 0 .1 0 .1.1v.3a.08.08 0 0 1-.09.09h-1.1a1.78 1.78 0 0 1-1.79-1.91zm13.84 2l-1.12-1.2a3.28 3.28 0 0 1-2.6 1.13c-1.48 0-2.54-.8-2.54-1.95 0-.9.53-1.6 2-2.46-.8-.83-1-1.3-1-1.9 0-1 .72-1.6 1.86-1.6s1.72.56 1.72 1.5c0 .77-.46 1.3-1.8 2.1l2.3 2.44a5.05 5.05 0 0 0 .56-1.58l.46.14a5.5 5.5 0 0 1-.67 1.8l1.15 1.26zM148 42.15l-2.47-2.6c-1.38.82-1.8 1.34-1.8 2.1 0 .92.83 1.53 2 1.53a2.75 2.75 0 0 0 2.27-1.01zm-2.34-3.2c1.22-.7 1.6-1.13 1.6-1.74s-.43-1.06-1.22-1.06-1.33.47-1.33 1.16c.02.5.2.85.94 1.64zm8.27 2.72c0-.06 0-.1.1-.1h.34a.08.08 0 0 1 .09.09c0 1 .5 1.5 1.3 1.5a1.18 1.18 0 0 0 1.3-1.28c0-2-3.07-2.33-3.07-4.5a1.65 1.65 0 0 1 1.75-1.73 1.8 1.8 0 0 1 1.74 2 .08.08 0 0 1-.09.09h-.33c-.06 0-.1 0-.1-.1 0-1-.5-1.48-1.22-1.48a1.13 1.13 0 0 0-1.23 1.19c0 1.86 3.07 2.2 3.07 4.5a1.71 1.71 0 0 1-1.84 1.8 1.85 1.85 0 0 1-1.81-2.01zm8.22-5.82v.3a.09.09 0 0 1-.09.1h-1.4v7.24a.07.07 0 0 1-.08.08h-.34c-.06 0-.1 0-.1-.08v-7.24h-1.4a.1.1 0 0 1-.09-.1v-.3a.08.08 0 0 1 .09-.09h3.32a.08.08 0 0 1 .09.09zm1.3 7.65v-5.9a1.79 1.79 0 1 1 3.57 0v.82a1.82 1.82 0 0 1-1.28 1.84l1.4 3.2c0 .07 0 .1-.07.1h-.32a.1.1 0 0 1-.1-.07l-1.36-3.13H164v3.13c0 .05 0 .08-.1.08h-.33c-.06-.01-.1-.04-.1-.1zm1.78-3.62a1.31 1.31 0 0 0 1.28-1.44v-.82a1.28 1.28 0 1 0-2.54 0v2.26zm3.5 3.62v-5.83a1.81 1.81 0 1 1 3.61 0v5.83c0 .05 0 .08-.1.08h-.33c-.06 0-.1 0-.1-.08v-2.84h-2.57v2.84a.08.08 0 0 1-.09.08h-.34a.09.09 0 0 1-.1-.08zm3.1-3.32v-2.5c0-.94-.48-1.5-1.3-1.5s-1.28.57-1.28 1.5v2.5zm5.14-4.33v.3a.09.09 0 0 1-.09.1h-1.4v7.24a.08.08 0 0 1-.09.08h-.34c-.06 0-.1 0-.1-.08v-7.24h-1.4a.1.1 0 0 1-.09-.1v-.3a.08.08 0 0 1 .09-.09h3.32a.08.08 0 0 1 .09.09zM178 41.7v-4.07a1.78 1.78 0 0 1 1.79-1.9h1.1a.09.09 0 0 1 .09.09v.3a.1.1 0 0 1-.09.1h-1.15a1.28 1.28 0 0 0-1.27 1.4v1.74h2.12a.09.09 0 0 1 .1.09v.3s0 .08-.1.08h-2.12v1.86a1.29 1.29 0 0 0 1.27 1.4h1.1a.09.09 0 0 1 .09.1v.3a.09.09 0 0 1-.09.09h-1.1a1.78 1.78 0 0 1-1.75-1.9zm4.45 0v-4a1.85 1.85 0 0 1 1.85-2 1.8 1.8 0 0 1 1.82 1.86.08.08 0 0 1-.09.09h-.3a.08.08 0 0 1-.09-.09 1.32 1.32 0 0 0-1.3-1.37c-.8 0-1.32.6-1.32 1.55v4a1.35 1.35 0 0 0 1.34 1.47 1.33 1.33 0 0 0 1.35-1.4v-1.87h-1.2a.09.09 0 0 1-.09-.09v-.3a.09.09 0 0 1 .09-.09h1.46a.23.23 0 0 1 .25.26v2.06a1.84 1.84 0 0 1-1.86 1.9 1.86 1.86 0 0 1-1.92-1.97zm6.73 1.8v-2.47a1.8 1.8 0 0 1-1.52-1.88v-3.3c0-.06 0-.1.1-.1h.33a.08.08 0 0 1 .09.09v3.3a1.26 1.26 0 1 0 2.5 0v-3.3a.08.08 0 0 1 .09-.09h.34a.09.09 0 0 1 .1.09v3.3a1.82 1.82 0 0 1-1.47 1.88v2.47c0 .05 0 .08-.1.08h-.34c-.022.036-.07.047-.105.025s-.047-.07-.025-.105z" fill="gray"/></svg>